<?xml version="1.0" standalone="no"?>
<!DOCTYPE svg PUBLIC "-//W3C//DTD SVG 20010904//EN"
 "http://www.w3.org/TR/2001/REC-SVG-20010904/DTD/svg10.dtd">
<svg version="1.0" xmlns="http://www.w3.org/2000/svg"
 width="500.000000pt" height="500.000000pt" viewBox="0 0 500.000000 500.000000"
 preserveAspectRatio="xMidYMid meet">
<metadata>
Created by potrace 1.16, written by Peter Selinger 2001-2019
</metadata>
<g transform="translate(0.000000,500.000000) scale(0.100000,-0.100000)"
fill="#000000" stroke="none">
<path d="M3576 4791 c-4 -7 -41 -11 -92 -11 -51 0 -84 -4 -84 -10 0 -7 -18 -8
-50 -4 -38 5 -51 3 -55 -7 -4 -11 -23 -13 -80 -11 -49 2 -75 0 -75 -7 0 -7
-22 -11 -55 -11 -30 0 -55 -4 -55 -10 0 -6 -30 -7 -79 -3 -53 4 -80 2 -85 -6
-4 -6 -17 -11 -30 -11 -14 0 -31 -12 -46 -32 -13 -18 -29 -37 -37 -41 -7 -4
-13 -16 -13 -26 0 -11 -7 -21 -15 -25 -8 -3 -15 -12 -15 -21 0 -9 -11 -26 -25
-39 -14 -13 -25 -29 -25 -35 0 -6 -7 -14 -15 -17 -8 -4 -15 -17 -15 -30 0 -15
-6 -24 -15 -24 -8 0 -15 -7 -15 -15 0 -8 -7 -15 -15 -15 -9 0 -15 -9 -15 -25
0 -16 -6 -25 -15 -25 -8 0 -15 -7 -15 -15 0 -8 -4 -15 -10 -15 -5 0 -13 -12
-16 -27 -4 -15 -18 -37 -31 -49 -12 -12 -23 -26 -23 -33 0 -6 -4 -11 -9 -11
-5 0 -19 -19 -31 -42 -12 -24 -28 -47 -36 -51 -8 -4 -14 -17 -14 -27 0 -11 -6
-20 -13 -20 -8 0 -22 -17 -33 -37 -10 -21 -22 -39 -26 -41 -5 -2 -8 -10 -8
-18 0 -8 -7 -17 -15 -20 -8 -4 -15 -12 -15 -19 0 -7 -7 -15 -15 -19 -9 -3 -15
-18 -15 -36 0 -16 -4 -30 -10 -30 -17 0 -50 -34 -50 -51 0 -9 -7 -19 -15 -23
-8 -3 -15 -15 -15 -26 0 -11 -4 -20 -10 -20 -5 0 -17 -16 -26 -36 -9 -20 -23
-38 -31 -41 -7 -3 -13 -16 -13 -29 0 -14 -5 -23 -12 -22 -7 2 -14 -7 -16 -19
-2 -13 -10 -23 -18 -23 -8 0 -14 -6 -14 -14 0 -7 -7 -19 -15 -26 -8 -7 -15
-23 -15 -36 0 -15 -6 -24 -15 -24 -9 0 -15 -9 -15 -25 0 -16 -6 -25 -15 -25
-8 0 -15 -5 -15 -11 0 -6 -6 -17 -13 -24 -31 -35 -37 -45 -37 -60 0 -9 -7 -18
-15 -21 -8 -4 -15 -15 -15 -25 0 -11 -7 -22 -15 -25 -8 -4 -15 -12 -15 -19 0
-7 -7 -15 -15 -19 -9 -3 -15 -18 -15 -36 0 -20 -5 -30 -15 -30 -8 0 -15 -6
-15 -14 0 -8 -7 -16 -15 -20 -8 -3 -15 -12 -15 -21 0 -8 -4 -15 -9 -15 -5 0
-13 -10 -17 -22 -4 -13 -17 -33 -30 -45 -13 -12 -24 -31 -24 -43 0 -11 -7 -20
-15 -20 -9 0 -15 -9 -15 -25 0 -16 -6 -25 -15 -25 -8 0 -15 -7 -15 -15 0 -9
-7 -18 -15 -21 -8 -4 -15 -12 -15 -19 0 -7 -7 -15 -15 -19 -8 -3 -15 -14 -15
-25 0 -10 -7 -21 -15 -25 -8 -3 -15 -13 -15 -23 0 -10 -11 -27 -25 -37 -14
-10 -25 -27 -25 -37 0 -11 -7 -19 -15 -19 -9 0 -15 -9 -15 -25 0 -16 -6 -25
-15 -25 -8 0 -15 -9 -15 -20 0 -11 -7 -23 -15 -26 -8 -4 -15 -12 -15 -19 0 -7
-13 -27 -30 -45 -16 -18 -30 -38 -30 -46 0 -8 -4 -14 -9 -14 -5 0 -12 -11 -15
-25 -4 -14 -11 -25 -16 -25 -6 0 -10 -8 -10 -17 0 -10 -12 -29 -26 -43 -14
-13 -30 -33 -35 -45 -11 -25 -30 -55 -46 -73 -7 -7 -13 -19 -13 -27 0 -7 -7
-15 -15 -19 -8 -3 -15 -12 -15 -20 0 -8 -11 -27 -24 -41 -14 -15 -28 -40 -31
-56 -4 -16 -11 -29 -16 -29 -5 0 -9 -5 -9 -10 0 -12 -15 -32 -42 -58 -10 -9
-18 -24 -18 -34 0 -10 -7 -18 -15 -18 -9 0 -15 -9 -15 -25 0 -16 -6 -25 -15
-25 -9 0 -15 -9 -15 -25 0 -14 -5 -25 -11 -25 -13 0 -39 -25 -39 -38 0 -5 -7
-15 -15 -22 -8 -7 -15 -23 -15 -36 0 -15 -6 -24 -15 -24 -9 0 -15 -9 -15 -25
0 -16 -6 -25 -15 -25 -9 0 -15 -9 -15 -25 0 -14 -6 -25 -13 -25 -12 0 -27 -19
-60 -79 -10 -19 -25 -41 -33 -48 -8 -8 -14 -21 -14 -29 0 -8 -4 -14 -9 -14 -5
0 -12 -11 -15 -25 -4 -14 -11 -25 -16 -25 -6 0 -10 -9 -10 -20 0 -11 -7 -23
-15 -26 -8 -4 -15 -14 -15 -23 -1 -9 -14 -27 -30 -41 -17 -13 -30 -32 -30 -41
0 -9 -7 -19 -15 -23 -8 -3 -15 -14 -15 -25 0 -10 -7 -21 -15 -25 -8 -3 -15
-13 -15 -22 0 -9 -11 -25 -25 -36 -14 -11 -25 -28 -25 -39 0 -10 -7 -19 -15
-19 -9 0 -15 -9 -15 -25 0 -16 -6 -25 -15 -25 -8 0 -15 -7 -15 -15 0 -8 -7
-15 -15 -15 -8 0 -15 -7 -15 -15 0 -9 -11 -26 -24 -38 -13 -12 -26 -32 -30
-44 -4 -13 -12 -23 -17 -23 -5 0 -9 -8 -9 -19 0 -10 -13 -28 -29 -40 -26 -20
-30 -30 -36 -96 -7 -75 4 -115 32 -115 7 0 13 -10 13 -23 0 -37 51 -84 100
-92 24 -4 50 -14 58 -21 8 -8 34 -14 63 -14 37 0 49 -4 49 -15 0 -11 12 -15
51 -15 27 0 69 -8 92 -19 56 -24 680 -69 703 -50 9 8 40 10 90 7 56 -4 77 -2
81 8 3 9 20 11 57 7 34 -4 56 -1 60 6 4 7 39 11 87 11 52 0 79 4 79 11 0 8 14
10 40 6 27 -3 45 -1 54 9 10 9 28 12 65 7 40 -5 51 -3 51 8 0 11 10 14 41 11
22 -3 46 1 52 7 6 6 30 11 53 11 24 0 45 4 48 9 3 5 22 12 41 15 19 3 51 9 70
12 19 3 35 10 35 15 0 5 18 9 39 9 22 0 43 5 46 10 3 6 19 10 36 10 17 0 29 5
29 13 0 9 12 11 40 9 30 -3 40 -1 40 11 0 10 7 13 23 10 14 -3 31 2 40 11 8 9
22 13 30 10 8 -3 21 2 30 10 9 9 26 16 39 16 27 0 78 21 78 33 0 4 18 7 40 7
22 0 40 5 40 10 0 6 11 10 25 10 14 0 25 5 25 10 0 6 11 10 25 10 15 0 25 6
25 14 0 9 7 12 21 9 14 -4 25 0 31 11 5 9 20 16 33 16 14 0 25 5 25 10 0 6 11
10 25 10 14 0 25 5 25 10 0 6 11 10 25 10 14 0 25 5 25 10 0 6 10 10 23 10 25
1 57 22 57 39 0 6 13 11 29 11 17 0 33 5 36 10 3 6 13 10 22 10 9 0 26 11 38
24 16 17 30 23 44 19 15 -4 21 -1 21 11 0 10 9 16 25 16 14 0 25 5 25 10 0 6
6 10 13 10 23 0 67 25 67 38 0 6 6 12 13 12 18 0 67 24 67 33 0 4 7 7 15 7 8
0 15 7 15 16 0 8 5 12 10 9 6 -3 13 1 16 9 3 9 17 16 30 16 13 0 24 4 24 8 0
5 11 15 25 22 14 7 25 19 25 27 0 7 7 13 15 13 8 0 15 5 15 10 0 6 7 10 15 10
8 0 22 11 31 24 8 14 25 26 37 28 14 2 23 11 25 25 2 13 10 23 18 23 7 0 19 9
26 20 7 11 18 20 25 20 7 0 13 7 13 15 0 8 5 15 12 15 15 0 68 60 68 77 0 7 7
13 15 13 9 0 15 9 15 25 0 16 6 25 15 25 8 0 15 7 15 15 0 8 6 15 13 15 16 0
47 52 47 79 0 12 6 21 14 21 17 0 46 59 46 94 0 16 6 26 15 26 10 0 15 10 15
34 0 21 6 36 15 40 11 4 15 21 15 61 0 35 5 62 14 70 19 20 32 190 16 210 -8
10 -10 33 -5 75 5 47 4 61 -7 65 -9 4 -13 17 -10 40 3 25 0 36 -11 41 -11 4
-14 15 -10 40 5 28 2 34 -12 34 -13 0 -16 6 -11 25 5 18 2 27 -9 31 -8 4 -15
17 -15 30 0 13 -4 24 -10 24 -5 0 -10 11 -10 25 0 14 -4 25 -10 25 -5 0 -10 7
-10 15 0 8 -7 15 -15 15 -11 0 -14 7 -9 25 5 19 2 25 -10 25 -9 0 -16 7 -16
15 0 8 -4 15 -10 15 -5 0 -10 5 -10 11 0 14 -25 39 -39 39 -6 0 -11 7 -11 15
0 8 -4 15 -10 15 -5 0 -10 7 -10 15 0 8 -7 15 -15 15 -8 0 -15 6 -15 13 0 7
-9 19 -20 27 -11 8 -20 20 -20 27 0 7 -7 13 -15 13 -8 0 -15 4 -15 10 0 5 -11
12 -24 16 -14 3 -27 12 -30 20 -3 8 -15 14 -26 14 -11 0 -20 7 -20 15 0 9 -10
15 -26 15 -14 0 -22 4 -19 10 3 5 -6 12 -20 16 -14 3 -25 10 -25 15 0 5 -7 9
-15 9 -10 0 -15 10 -15 30 0 27 2 30 25 24 18 -4 27 -1 31 10 3 9 17 16 30 16
13 0 24 5 24 10 0 6 11 10 25 10 14 0 25 5 25 10 0 6 11 10 24 10 14 0 28 5
31 10 3 6 15 10 26 10 11 0 22 6 25 14 3 7 14 11 28 9 13 -3 28 2 35 11 8 9
24 16 37 16 13 0 24 5 24 10 0 6 11 10 24 10 14 0 28 5 31 10 3 6 17 10 31 10
13 0 24 5 24 10 0 6 11 10 25 10 14 0 25 5 25 10 0 6 14 10 30 10 19 0 30 5
30 14 0 9 8 12 25 8 18 -3 25 0 25 12 0 12 9 16 34 16 19 0 38 5 41 10 3 6 17
10 31 10 13 0 24 5 24 10 0 6 11 10 25 10 14 0 25 5 25 10 0 6 14 10 30 10 17
0 30 5 30 10 0 6 11 10 25 10 14 0 25 6 25 13 0 9 10 12 32 9 22 -3 35 0 44
13 7 9 17 14 23 11 5 -3 16 1 24 9 9 8 20 15 26 15 6 0 11 15 11 34 0 28 -4
35 -25 40 -14 4 -25 11 -25 16 0 6 -10 10 -21 10 -12 0 -27 7 -33 16 -9 12
-36 17 -102 21 -51 3 -99 11 -112 20 -13 8 -72 18 -139 24 -74 6 -121 15 -127
23 -7 9 -44 16 -99 19 -59 4 -92 11 -103 22 -10 9 -34 15 -67 15 -29 0 -69 3
-89 6 -31 5 -38 4 -38 -10 0 -9 -7 -16 -15 -16 -8 0 -15 -4 -15 -8 0 -5 -11
-15 -25 -22 -14 -7 -25 -19 -25 -27 0 -7 -7 -13 -15 -13 -8 0 -15 -4 -15 -10
0 -5 -11 -10 -25 -10 -16 0 -25 -6 -25 -15 0 -8 -7 -15 -15 -15 -8 0 -15 -4
-15 -10 0 -5 -6 -10 -13 -10 -7 0 -19 -9 -27 -20 -8 -11 -20 -20 -27 -20 -7 0
-13 -7 -13 -15 0 -9 -9 -15 -25 -15 -16 0 -25 6 -25 15 0 8 -7 15 -15 15 -9 0
-15 9 -15 25 0 16 -6 25 -15 25 -9 0 -20 12 -26 27 -11 30 -46 63 -66 63 -7 0
-13 4 -13 9 0 17 -55 71 -72 71 -10 0 -18 6 -18 14 0 7 -8 16 -17 20 -21 6
-51 25 -71 44 -7 6 -24 12 -37 12 -12 0 -25 7 -29 15 -3 8 -15 15 -26 15 -11
0 -20 4 -20 9 0 5 -15 13 -32 16 -18 4 -42 14 -53 21 -11 8 -44 14 -75 15 -90
2 -163 13 -168 27 -2 6 3 12 12 12 9 0 16 5 16 10 0 6 7 10 15 10 8 0 25 11
37 25 12 14 26 25 30 25 5 0 19 10 31 23 12 13 38 34 57 47 19 14 45 35 56 47
12 13 24 23 28 23 4 0 20 12 36 28 42 41 69 62 80 62 6 0 10 7 10 15 0 8 7 15
15 15 8 0 15 4 15 8 0 5 11 15 25 22 14 7 25 19 25 27 0 7 10 13 21 13 12 0
32 11 45 25 13 14 28 25 34 25 5 0 10 4 10 8 0 5 11 15 25 22 14 7 25 19 25
27 0 7 7 13 15 13 8 0 15 5 15 10 0 6 7 10 15 10 8 0 15 4 15 9 0 5 9 12 19
16 11 3 23 15 26 26 4 10 14 19 24 19 10 0 30 11 45 25 15 14 31 25 37 25 5 0
9 5 9 10 0 6 5 10 11 10 6 0 25 16 43 35 19 19 38 35 45 35 17 0 13 39 -6 59
-22 23 -196 41 -207 22z m-679 -1049 c46 -5 89 -14 95 -19 7 -6 27 -13 43 -17
45 -11 131 -55 185 -96 82 -63 240 -238 240 -267 0 -6 -35 -37 -77 -69 -43
-33 -80 -61 -83 -64 -14 -16 -180 -150 -210 -170 -32 -22 -188 -146 -200 -159
-3 -4 -34 -31 -70 -61 -36 -30 -74 -63 -85 -74 -11 -10 -36 -30 -55 -44 -19
-15 -37 -30 -40 -33 -3 -3 -36 -26 -75 -51 -38 -25 -86 -62 -105 -83 -59 -64
-208 -189 -320 -270 -30 -22 -84 -65 -120 -96 -36 -31 -76 -65 -89 -75 -13
-10 -31 -26 -40 -35 -9 -9 -36 -30 -61 -47 -25 -17 -66 -48 -91 -69 -100 -83
-286 -239 -314 -264 -84 -76 -104 -91 -153 -114 -29 -14 -56 -25 -60 -25 -19
0 -120 -55 -150 -81 -18 -16 -39 -29 -46 -29 -7 0 -21 -9 -31 -20 -10 -11 -47
-37 -81 -57 -35 -20 -64 -41 -64 -45 0 -4 -4 -8 -10 -8 -5 0 -10 7 -10 15 0 8
7 15 15 15 8 0 15 9 15 19 0 11 11 32 25 47 14 15 25 35 25 45 0 11 4 19 9 19
5 0 14 12 21 28 19 46 34 72 42 72 5 0 8 6 8 14 0 8 6 21 13 28 7 7 22 29 33
48 10 19 31 51 47 71 15 20 27 41 27 47 0 5 7 12 15 16 8 3 15 15 15 26 0 11
3 20 8 20 4 0 16 17 27 38 11 20 39 65 62 100 24 35 43 67 43 72 0 4 4 10 8
12 5 2 38 53 75 113 37 61 73 119 80 130 6 11 24 36 40 56 15 20 27 40 27 44
0 5 11 23 25 41 14 18 25 38 25 44 0 6 7 13 15 16 8 4 15 10 15 14 0 4 24 42
53 85 28 43 57 85 62 94 6 9 16 20 23 24 6 4 12 14 12 21 0 8 6 19 14 25 8 7
22 27 31 46 9 19 20 35 25 35 6 0 10 5 10 11 0 6 14 28 30 49 17 21 30 42 30
48 0 6 4 12 8 14 4 2 18 20 31 41 12 20 27 37 32 37 5 0 9 9 9 20 0 10 6 23
13 27 8 4 22 22 33 38 10 17 24 36 31 43 7 7 13 18 13 24 0 6 10 20 23 32 12
12 31 39 42 60 11 21 25 41 32 43 7 3 13 10 13 16 0 25 124 157 255 271 53 45
114 81 180 106 11 4 31 12 45 18 48 21 107 22 267 4z m718 -885 c17 -9 53 -26
80 -38 54 -25 128 -69 133 -81 2 -5 10 -8 18 -8 19 0 124 -110 178 -185 23
-33 55 -87 70 -120 15 -33 31 -68 36 -77 6 -10 10 -25 10 -33 0 -8 4 -23 9
-33 14 -26 34 -128 29 -143 -3 -8 0 -21 7 -29 16 -19 8 -185 -10 -203 -6 -7
-15 -31 -18 -54 -4 -23 -14 -54 -21 -70 -8 -15 -25 -48 -36 -73 -39 -80 -43
-86 -140 -208 -92 -115 -310 -296 -455 -378 -100 -57 -138 -78 -190 -104 -33
-17 -67 -35 -75 -40 -32 -20 -190 -90 -204 -90 -7 0 -19 -7 -26 -15 -7 -8 -19
-15 -26 -15 -8 0 -22 -4 -32 -9 -9 -5 -28 -13 -42 -19 -14 -5 -46 -19 -72 -31
-26 -12 -53 -21 -59 -21 -6 0 -23 -6 -37 -14 -15 -8 -47 -20 -72 -27 -25 -7
-49 -16 -55 -21 -5 -4 -19 -8 -31 -8 -13 0 -26 -4 -29 -10 -3 -5 -19 -10 -35
-10 -16 0 -32 -4 -35 -10 -3 -5 -17 -10 -30 -10 -13 0 -27 -4 -30 -10 -3 -5
-19 -10 -35 -10 -16 0 -32 -4 -35 -10 -3 -6 -21 -10 -39 -10 -18 0 -36 -3 -40
-7 -10 -10 -96 -32 -128 -33 -15 0 -30 -4 -33 -10 -3 -5 -21 -10 -40 -10 -19
0 -37 -5 -40 -10 -3 -6 -25 -10 -49 -10 -23 0 -46 -4 -51 -9 -6 -5 -28 -11
-50 -15 -22 -3 -71 -10 -110 -17 -38 -6 -88 -13 -110 -15 -22 -2 -76 -9 -120
-15 -44 -5 -115 -12 -157 -14 -42 -1 -82 -6 -88 -10 -19 -12 -389 -7 -450 5
-30 6 -89 15 -130 21 -41 5 -87 16 -102 24 -14 8 -42 15 -61 15 -19 0 -50 6
-68 14 -19 8 -55 17 -81 21 -27 4 -48 11 -48 16 0 4 17 22 38 38 114 93 137
111 146 111 5 0 45 33 90 73 44 41 131 112 191 159 61 48 126 101 145 118 80
73 118 107 158 138 44 36 46 38 142 122 34 30 76 66 93 80 17 14 79 67 139
117 60 51 134 111 165 134 64 48 81 62 127 104 18 17 46 41 62 54 81 67 160
136 169 147 6 6 32 25 58 42 27 17 67 46 90 65 97 81 167 138 252 202 82 62
170 133 199 161 6 6 31 23 54 38 23 14 53 35 65 46 74 63 53 47 194 150 45 33
89 60 97 60 8 0 17 4 20 8 3 4 31 21 63 36 32 15 75 37 96 47 22 10 47 19 57
19 11 0 22 5 25 10 3 6 30 10 58 10 29 0 59 5 67 11 21 14 159 4 195 -14z
m-2681 -1580 c-16 -14 -39 -33 -50 -43 -12 -11 -45 -39 -74 -63 -29 -25 -58
-51 -66 -58 -7 -7 -15 -13 -19 -13 -3 0 -15 -9 -27 -20 -26 -23 -38 -18 -16 7
8 10 18 25 22 33 18 40 37 65 78 103 43 41 53 47 128 80 47 21 61 5 24 -26z"/>
<path d="M1708 2346 c-90 -37 -166 -106 -210 -191 -47 -89 -108 -217 -108
-226 0 -5 5 -9 10 -9 10 0 87 32 122 51 10 5 31 9 48 9 16 0 30 4 30 8 0 5 19
15 43 22 65 19 76 24 162 65 80 39 145 88 145 111 0 6 7 17 15 24 24 20 19 83
-7 106 -70 62 -150 71 -250 30z"/>
<path d="M2205 1821 c-3 -6 -28 -11 -54 -11 -82 0 -159 -47 -283 -175 -108
-110 -121 -138 -56 -116 19 6 68 11 109 11 138 -1 282 9 292 19 6 6 23 11 39
11 38 0 77 19 121 60 36 32 39 38 34 75 -7 48 -55 93 -120 111 -23 6 -49 14
-58 18 -10 4 -20 3 -24 -3z"/>
</g>
</svg>
